{"asset":{"generator":"3D Builder","version":"2.0"},"scene":0,"scenes":[{"nodes":[0]}],"nodes":[{"mesh":0,"matrix":[39.370079040527344,0,0,0,0,-4.6932786972320173E-6,-39.370071411132812,0,0,39.370071411132812,-4.6932786972320173E-6,0,0,0.753793478012085,-3.19044465868501E-6,1]}],"meshes":[{"primitives":[{"attributes":{"POSITION":0,"TEXCOORD_0":1},"mode":4,"indices":2,"material":0}]}],"materials":[{"pbrMetallicRoughness":{"baseColorFactor":[1,1,1,1],"metallicFactor":0,"roughnessFactor":1,"baseColorTexture":{"index":0,"texCoord":0},"metallicRoughnessTexture":{"index":1,"texCoord":0}},"alphaMode":"OPAQUE"}],"textures":[{"source":0,"sampler":0},{"source":1,"sampler":0}],"images":[{"uri":"Material_1_baseColor.png"},{"uri":"Material_1_metallicRoughness_143254585871571099.png"}],"samplers":[{"magFilter":9729,"wrapS":10497,"wrapT":10497}],"accessors":[{"bufferView":0,"byteOffset":0,"count":1489,"componentType":5126,"type":"VEC3","min":[-0.81157135963439941,-1.2495129108428955,-0.017138144001364708],"max":[0.76023149490356445,0.28561240434646606,1.2263951301574707]},{"bufferView":1,"byteOffset":0,"count":1489,"componentType":5126,"type":"VEC2"},{"bufferView":2,"byteOffset":0,"count":6876,"componentType":5125,"type":"SCALAR"}],"bufferViews":[{"buffer":0,"byteOffset":0,"byteLength":17868,"byteStride":12,"target":34962},{"buffer":0,"byteOffset":17868,"byteLength":11912,"byteStride":8,"target":34962},{"buffer":0,"byteOffset":29780,"byteLength":27504,"target":34963}],"buffers":[{"byteLength":57284,"uri":"snake.bin"}]}